<?xml version="1.0" encoding="utf-8"?>
<!-- Generator: Adobe Illustrator 23.0.3, SVG Export Plug-In . SVG Version: 6.00 Build 0)  -->
<svg version="1.1" id="Layer_1" xmlns="http://www.w3.org/2000/svg" xmlns:xlink="http://www.w3.org/1999/xlink" x="0px" y="0px"
	 viewBox="0 0 1920 1080" style="enable-background:new 0 0 1920 1080;" xml:space="preserve">
<path d="M489.04,312.23v86.9h-19.69v-86.9H489.04z M589.94,334.83v64.3h-17.03v-10.95c-3.21,8.19-9.34,12.29-18.39,12.29
	c-4.69,0-8.29-0.9-10.8-2.71c-2.51-1.8-4.31-4.27-5.4-7.38c-1.09-3.12-1.64-7.63-1.64-13.53v-42.02h17.83v42.02
	c0,5.77,2.3,8.66,6.91,8.66c2.35,0,4.38-0.69,6.11-2.07c1.73-1.38,2.83-2.85,3.3-4.42c0.47-1.57,0.71-4.27,0.71-8.08v-36.1H589.94z
	 M651.78,350.37l-13.39,3.69c-1.56-5.81-5.62-8.72-12.16-8.72c-6.17,0-9.26,1.93-9.26,5.8c0,1.53,0.56,2.75,1.7,3.67
	c1.13,0.91,4.08,1.69,8.86,2.32c7.12,0.97,12.38,2.09,15.8,3.36c3.41,1.27,6.12,3.42,8.12,6.43c2,3.01,2.99,6.73,2.99,11.14
	c0,6.62-2.44,12.01-7.31,16.17c-4.88,4.16-11.69,6.24-20.46,6.24c-15.88,0-25.36-6.34-28.45-19.04l15.49-2.36
	c1.27,5.77,5.88,8.66,13.82,8.66c3.04,0,5.62-0.56,7.71-1.69c2.1-1.13,3.15-2.65,3.15-4.56c0-2.98-2.32-4.74-6.97-5.29
	c-12.59-1.6-20.87-4.09-24.84-7.46c-3.97-3.37-5.96-8.07-5.96-14.1c0-6.11,2.3-11.16,6.91-15.15c4.61-3.99,11.07-5.98,19.38-5.98
	c6.58,0,11.85,1.34,15.8,4.01C646.66,340.18,649.68,344.47,651.78,350.37z M720.9,370.16h-40.11c-0.04,1.15-0.06,2.14-0.06,2.99
	c0,4.58,1.18,8.04,3.55,10.38c2.37,2.33,5.19,3.5,8.49,3.5c6.13,0,9.81-3.37,11.05-10.12l16.66,1.27
	c-4.65,14.85-14.09,22.28-28.33,22.28c-6.21,0-11.49-1.28-15.83-3.85c-4.34-2.57-7.92-6.31-10.74-11.24
	c-2.82-4.92-4.23-10.82-4.23-17.7c0-10.23,2.83-18.48,8.49-24.77c5.66-6.28,12.93-9.42,21.82-9.42c8.02,0,14.9,2.92,20.64,8.75
	C718.03,348.08,720.9,357.39,720.9,370.16z M680.72,359.15h22.15c-0.58-8.83-4.09-13.24-10.55-13.24
	C685.41,345.91,681.54,350.32,680.72,359.15z M818.46,399.13h-17.83c-0.58-2.55-0.86-5.9-0.86-10.06c-3.12,4.58-6.23,7.63-9.33,9.14
	c-3.1,1.51-6.62,2.26-10.57,2.26c-5.83,0-10.55-1.63-14.14-4.9c-3.59-3.27-5.39-7.66-5.39-13.18c0-4.03,1.05-7.75,3.14-11.14
	c2.09-3.4,5.46-6.06,10.1-7.99c4.64-1.93,13.1-3.36,25.39-4.3v-3.69c0-6.24-3.02-9.36-9.04-9.36c-6.44,0-10.03,3.12-10.77,9.36
	l-16.97-1.66c1.11-7.3,4.46-12.48,10.06-15.53c5.59-3.06,11.93-4.58,19.01-4.58c4.24,0,8.23,0.51,11.97,1.53
	c3.74,1.02,6.67,2.55,8.76,4.58c2.1,2.04,3.52,4.19,4.26,6.46c0.74,2.27,1.11,6.23,1.11,11.87v29.16
	C817.35,392.7,817.72,396.71,818.46,399.13z M798.96,368.32c-12.84,1.32-19.25,5.33-19.25,12.03c0,2.25,0.68,4.19,2.03,5.83
	c1.35,1.63,3.28,2.45,5.78,2.45c3.24,0,5.96-1.39,8.15-4.17c2.19-2.78,3.29-6.21,3.29-10.28V368.32z M886.72,399.13h-18.39v-36.1
	c0-4.37-0.16-7.36-0.49-8.98c-0.33-1.61-1.13-2.98-2.41-4.11c-1.28-1.12-2.88-1.69-4.81-1.69c-6.46,0-9.69,4.92-9.69,14.77v36.1
	h-18.39v-64.3h17.09v10.89c2.84-5.18,5.64-8.51,8.39-10c2.76-1.48,5.74-2.23,8.95-2.23c5.92,0,10.7,1.65,14.32,4.93
	c3.62,3.29,5.43,9.75,5.43,19.39V399.13z M920.29,310.45v18.97H901.9v-18.97H920.29z M920.29,334.83v64.3H901.9v-64.3H920.29z
	 M1024.46,399.13h-18.39v-35.59c0-5.01-0.14-8.27-0.43-9.77c-0.29-1.51-1.04-2.76-2.25-3.76c-1.21-1-2.89-1.5-5.03-1.5
	c-2.02,0-4.07,0.74-6.17,2.23c-2.1,1.49-3.15,5.75-3.15,12.8v35.59h-18.39v-35.59c0-5.13-0.23-8.46-0.68-9.96
	c-0.45-1.51-1.31-2.73-2.56-3.66c-1.26-0.93-2.85-1.4-4.78-1.4c-3.17,0-5.52,1.03-7.07,3.09c-1.54,2.06-2.31,6.04-2.31,11.94v35.59
	h-17.83v-64.3h17.28v9.8c2.93-7.43,8.78-11.14,17.56-11.14c7.95,0,13.7,3.71,17.25,11.14c3.46-7.43,9.48-11.14,18.08-11.14
	c4.12,0,7.65,0.87,10.62,2.61c2.96,1.74,5.08,4.01,6.36,6.81c1.28,2.8,1.91,7.62,1.91,14.45V399.13z M1093.95,399.13h-17.83
	c-0.58-2.55-0.86-5.9-0.86-10.06c-3.12,4.58-6.23,7.63-9.34,9.14c-3.1,1.51-6.62,2.26-10.57,2.26c-5.83,0-10.55-1.63-14.14-4.9
	c-3.59-3.27-5.39-7.66-5.39-13.18c0-4.03,1.05-7.75,3.14-11.14c2.09-3.4,5.46-6.06,10.11-7.99c4.64-1.93,13.1-3.36,25.38-4.3v-3.69
	c0-6.24-3.02-9.36-9.04-9.36c-6.44,0-10.03,3.12-10.77,9.36l-16.97-1.66c1.11-7.3,4.46-12.48,10.06-15.53
	c5.59-3.06,11.93-4.58,19.01-4.58c4.24,0,8.23,0.51,11.97,1.53c3.74,1.02,6.67,2.55,8.76,4.58c2.1,2.04,3.52,4.19,4.26,6.46
	c0.74,2.27,1.11,6.23,1.11,11.87v29.16C1092.84,392.7,1093.21,396.71,1093.95,399.13z M1074.45,368.32
	c-12.84,1.32-19.25,5.33-19.25,12.03c0,2.25,0.68,4.19,2.03,5.83c1.35,1.63,3.28,2.45,5.78,2.45c3.24,0,5.96-1.39,8.15-4.17
	c2.19-2.78,3.29-6.21,3.29-10.28V368.32z M1128.75,349.6v27.18c0,3.4,0.49,5.67,1.47,6.81c0.98,1.15,3.3,1.72,6.94,1.72
	c1.68,0,3.63-0.08,5.84-0.25v14.07c-5.35,0.93-9.2,1.4-11.54,1.4c-7.65,0-13.08-1.52-16.29-4.55c-3.21-3.03-4.81-8.52-4.81-16.46
	V349.6h-9.87v-14.77h10.92l1.48-18.97l15.86-1.27v20.24h13.39v14.77H1128.75z M1170.84,310.45v18.97h-18.39v-18.97H1170.84z
	 M1170.84,334.83v64.3h-18.39v-64.3H1170.84z M1211.79,333.49c9.49,0,16.9,3.21,22.22,9.61c5.32,6.41,7.98,14.43,7.98,24.06
	c0,9.51-2.76,17.43-8.29,23.78c-5.53,6.35-12.88,9.52-22.04,9.52c-8.88,0-15.98-3.14-21.3-9.42c-5.32-6.28-7.98-14.35-7.98-24.19
	c0-6.83,1.2-12.64,3.61-17.41c2.4-4.77,5.7-8.63,9.89-11.55C1200.08,334.96,1205.38,333.49,1211.79,333.49z M1212.28,345.91
	c-3.49,0-6.11,1.39-7.88,4.17c-1.76,2.78-2.65,8.31-2.65,16.58c0,7.6,0.84,13.05,2.52,16.36c1.68,3.31,4.31,4.97,7.88,4.97
	c3.12,0,5.64-1.41,7.57-4.23c1.93-2.82,2.89-8.2,2.89-16.14c0-8.45-0.85-14.17-2.55-17.19
	C1218.36,347.42,1215.77,345.91,1212.28,345.91z M1307.78,399.13h-18.39v-36.1c0-4.37-0.17-7.36-0.49-8.98
	c-0.33-1.61-1.13-2.98-2.41-4.11c-1.28-1.12-2.88-1.69-4.81-1.69c-6.46,0-9.69,4.92-9.69,14.77v36.1h-18.39v-64.3h17.09v10.89
	c2.84-5.18,5.64-8.51,8.39-10c2.76-1.48,5.74-2.23,8.95-2.23c5.92,0,10.7,1.65,14.32,4.93c3.62,3.29,5.43,9.75,5.43,19.39V399.13z
	 M1375.3,349.6v27.18c0,3.4,0.49,5.67,1.47,6.81c0.98,1.15,3.3,1.72,6.94,1.72c1.68,0,3.63-0.08,5.84-0.25v14.07
	c-5.35,0.93-9.2,1.4-11.54,1.4c-7.65,0-13.08-1.52-16.29-4.55c-3.21-3.03-4.81-8.52-4.81-16.46V349.6h-9.88v-14.77h10.92l1.48-18.97
	l15.86-1.27v20.24h13.39v14.77H1375.3z M1424.33,333.49c9.49,0,16.9,3.21,22.22,9.61c5.32,6.41,7.98,14.43,7.98,24.06
	c0,9.51-2.76,17.43-8.29,23.78c-5.53,6.35-12.88,9.52-22.04,9.52c-8.88,0-15.98-3.14-21.3-9.42c-5.32-6.28-7.98-14.35-7.98-24.19
	c0-6.83,1.2-12.64,3.61-17.41c2.4-4.77,5.7-8.63,9.89-11.55C1412.61,334.96,1417.92,333.49,1424.33,333.49z M1424.82,345.91
	c-3.49,0-6.11,1.39-7.88,4.17c-1.76,2.78-2.65,8.31-2.65,16.58c0,7.6,0.84,13.05,2.52,16.36c1.68,3.31,4.31,4.97,7.88,4.97
	c3.12,0,5.64-1.41,7.57-4.23c1.93-2.82,2.89-8.2,2.89-16.14c0-8.45-0.85-14.17-2.55-17.19
	C1430.9,347.42,1428.31,345.91,1424.82,345.91z M516.41,507.46c-0.7,7.6-3.61,13.74-8.73,18.43c-5.12,4.69-11.74,7.03-19.84,7.03
	c-8.8,0-15.97-3-21.51-9.01c-5.53-6.01-8.3-14.04-8.3-24.1c0-10.06,2.83-18.22,8.49-24.48c5.66-6.26,13.22-9.39,22.68-9.39
	c7.61,0,13.92,2.36,18.92,7.07c5,4.71,7.77,10.61,8.3,17.7l-17.16,1.02c-0.58-7.72-3.83-11.59-9.75-11.59
	c-7.28,0-10.92,6.15-10.92,18.46c0,8.19,1.02,13.39,3.05,15.6c2.04,2.21,4.51,3.31,7.44,3.31c5.68,0,9.07-3.71,10.18-11.14
	L516.41,507.46z M544.12,531.59h-17.83v-64.3h16.85v11.97c2.59-8.91,7.08-13.37,13.45-13.37c0.9,0,2.02,0.06,3.33,0.19v18.72
	c-3.74,0-6.66,0.59-8.73,1.78c-2.08,1.19-3.77,3.32-5.09,6.4c-1.32,3.08-1.97,7.23-1.97,12.45V531.59z M626.14,502.62h-40.11
	c-0.04,1.15-0.06,2.14-0.06,2.99c0,4.58,1.18,8.04,3.55,10.38c2.37,2.33,5.19,3.5,8.49,3.5c6.13,0,9.81-3.37,11.05-10.12l16.66,1.27
	c-4.65,14.85-14.09,22.28-28.33,22.28c-6.21,0-11.49-1.28-15.83-3.85c-4.34-2.57-7.92-6.31-10.74-11.24
	c-2.82-4.92-4.23-10.82-4.23-17.7c0-10.23,2.83-18.48,8.49-24.77c5.66-6.28,12.93-9.42,21.82-9.42c8.02,0,14.9,2.92,20.64,8.75
	C623.27,480.54,626.14,489.85,626.14,502.62z M585.96,491.61h22.15c-0.58-8.83-4.09-13.24-10.55-13.24
	C590.65,478.37,586.78,482.78,585.96,491.61z M692.11,531.59h-17.83c-0.58-2.55-0.86-5.9-0.86-10.06c-3.12,4.58-6.23,7.63-9.33,9.14
	c-3.1,1.51-6.62,2.26-10.57,2.26c-5.83,0-10.55-1.63-14.14-4.9c-3.59-3.27-5.39-7.66-5.39-13.18c0-4.03,1.05-7.75,3.14-11.14
	c2.09-3.4,5.46-6.06,10.1-7.99c4.64-1.93,13.1-3.36,25.39-4.3v-3.69c0-6.24-3.02-9.36-9.04-9.36c-6.44,0-10.03,3.12-10.77,9.36
	l-16.97-1.66c1.11-7.3,4.46-12.48,10.06-15.53c5.59-3.06,11.93-4.58,19.01-4.58c4.24,0,8.23,0.51,11.97,1.53
	c3.74,1.02,6.67,2.55,8.76,4.58c2.1,2.04,3.52,4.19,4.26,6.46c0.74,2.27,1.11,6.23,1.11,11.87v29.16
	C691,525.16,691.37,529.17,692.11,531.59z M672.61,500.78c-12.84,1.32-19.25,5.33-19.25,12.03c0,2.25,0.68,4.19,2.03,5.83
	c1.35,1.63,3.28,2.45,5.78,2.45c3.24,0,5.96-1.39,8.15-4.17c2.19-2.78,3.29-6.21,3.29-10.28V500.78z M726.91,482.06v27.18
	c0,3.4,0.49,5.67,1.47,6.81c0.98,1.15,3.3,1.72,6.94,1.72c1.68,0,3.63-0.08,5.84-0.25v14.07c-5.35,0.93-9.19,1.4-11.54,1.4
	c-7.65,0-13.08-1.52-16.29-4.55c-3.21-3.03-4.81-8.52-4.81-16.46v-29.92h-9.87v-14.77h10.92l1.48-18.97l15.86-1.27v20.24h13.39
	v14.77H726.91z M805.97,502.62h-40.11c-0.04,1.15-0.06,2.14-0.06,2.99c0,4.58,1.18,8.04,3.55,10.38c2.37,2.33,5.19,3.5,8.49,3.5
	c6.13,0,9.81-3.37,11.05-10.12l16.66,1.27c-4.65,14.85-14.09,22.28-28.33,22.28c-6.21,0-11.49-1.28-15.83-3.85
	c-4.34-2.57-7.92-6.31-10.74-11.24c-2.82-4.92-4.23-10.82-4.23-17.7c0-10.23,2.83-18.48,8.49-24.77c5.66-6.28,12.93-9.42,21.82-9.42
	c8.02,0,14.9,2.92,20.64,8.75C803.1,480.54,805.97,489.85,805.97,502.62z M765.79,491.61h22.15c-0.58-8.83-4.09-13.24-10.55-13.24
	C770.48,478.37,766.61,482.78,765.79,491.61z M867.56,442.91v18.97h-18.39v-18.97H867.56z M867.56,467.29v64.3h-18.39v-64.3H867.56z
	 M936.86,531.59h-18.39v-36.1c0-4.37-0.16-7.36-0.49-8.98c-0.33-1.61-1.13-2.98-2.41-4.11c-1.28-1.12-2.88-1.69-4.81-1.69
	c-6.46,0-9.69,4.92-9.69,14.77v36.1h-18.39v-64.3h17.09v10.89c2.84-5.18,5.64-8.51,8.39-10c2.76-1.48,5.74-2.23,8.95-2.23
	c5.92,0,10.7,1.65,14.32,4.93c3.62,3.29,5.43,9.75,5.43,19.39V531.59z M972.78,482.06v27.18c0,3.4,0.49,5.67,1.47,6.81
	c0.98,1.15,3.3,1.72,6.94,1.72c1.68,0,3.63-0.08,5.84-0.25v14.07c-5.35,0.93-9.2,1.4-11.54,1.4c-7.65,0-13.08-1.52-16.29-4.55
	c-3.21-3.03-4.81-8.52-4.81-16.46v-29.92h-9.87v-14.77h10.92l1.48-18.97l15.86-1.27v20.24h13.39v14.77H972.78z M1051.83,502.62
	h-40.11c-0.04,1.15-0.06,2.14-0.06,2.99c0,4.58,1.18,8.04,3.55,10.38c2.37,2.33,5.19,3.5,8.49,3.5c6.13,0,9.81-3.37,11.05-10.12
	l16.66,1.27c-4.65,14.85-14.09,22.28-28.33,22.28c-6.21,0-11.49-1.28-15.83-3.85c-4.34-2.57-7.92-6.31-10.74-11.24
	c-2.82-4.92-4.23-10.82-4.23-17.7c0-10.23,2.83-18.48,8.48-24.77c5.66-6.28,12.93-9.42,21.82-9.42c8.02,0,14.9,2.92,20.64,8.75
	C1048.96,480.54,1051.83,489.85,1051.83,502.62z M1011.65,491.61h22.16c-0.58-8.83-4.09-13.24-10.55-13.24
	C1016.34,478.37,1012.48,482.78,1011.65,491.61z M1081.27,531.59h-17.83v-64.3h16.85v11.97c2.59-8.91,7.08-13.37,13.45-13.37
	c0.9,0,2.02,0.06,3.33,0.19v18.72c-3.74,0-6.65,0.59-8.73,1.78c-2.08,1.19-3.77,3.32-5.09,6.4c-1.32,3.08-1.97,7.23-1.97,12.45
	V531.59z M1161.68,531.59h-17.83c-0.58-2.55-0.86-5.9-0.86-10.06c-3.12,4.58-6.23,7.63-9.33,9.14c-3.1,1.51-6.62,2.26-10.57,2.26
	c-5.83,0-10.55-1.63-14.14-4.9c-3.59-3.27-5.39-7.66-5.39-13.18c0-4.03,1.05-7.75,3.14-11.14c2.09-3.4,5.46-6.06,10.1-7.99
	c4.64-1.93,13.1-3.36,25.39-4.3v-3.69c0-6.24-3.02-9.36-9.04-9.36c-6.44,0-10.03,3.12-10.77,9.36l-16.97-1.66
	c1.11-7.3,4.46-12.48,10.06-15.53c5.6-3.06,11.93-4.58,19.01-4.58c4.24,0,8.23,0.51,11.97,1.53c3.74,1.02,6.66,2.55,8.76,4.58
	c2.1,2.04,3.52,4.19,4.26,6.46c0.74,2.27,1.11,6.23,1.11,11.87v29.16C1160.57,525.16,1160.94,529.17,1161.68,531.59z
	 M1142.18,500.78c-12.84,1.32-19.25,5.33-19.25,12.03c0,2.25,0.68,4.19,2.03,5.83c1.35,1.63,3.28,2.45,5.78,2.45
	c3.24,0,5.96-1.39,8.15-4.17c2.19-2.78,3.29-6.21,3.29-10.28V500.78z M1230.55,507.46c-0.7,7.6-3.61,13.74-8.73,18.43
	c-5.12,4.69-11.74,7.03-19.84,7.03c-8.8,0-15.97-3-21.51-9.01c-5.53-6.01-8.3-14.04-8.3-24.1c0-10.06,2.83-18.22,8.49-24.48
	c5.66-6.26,13.22-9.39,22.68-9.39c7.61,0,13.92,2.36,18.92,7.07s7.76,10.61,8.3,17.7l-17.16,1.02c-0.58-7.72-3.83-11.59-9.75-11.59
	c-7.28,0-10.92,6.15-10.92,18.46c0,8.19,1.02,13.39,3.05,15.6c2.04,2.21,4.52,3.31,7.44,3.31c5.68,0,9.07-3.71,10.18-11.14
	L1230.55,507.46z M1261.16,482.06v27.18c0,3.4,0.49,5.67,1.47,6.81c0.98,1.15,3.3,1.72,6.94,1.72c1.68,0,3.63-0.08,5.84-0.25v14.07
	c-5.35,0.93-9.2,1.4-11.54,1.4c-7.65,0-13.08-1.52-16.29-4.55c-3.21-3.03-4.81-8.52-4.81-16.46v-29.92h-9.87v-14.77h10.92
	l1.48-18.97l15.86-1.27v20.24h13.39v14.77H1261.16z M1303.25,442.91v18.97h-18.39v-18.97H1303.25z M1303.25,467.29v64.3h-18.39
	v-64.3H1303.25z M1367.43,467.29l-21.36,64.3h-14.3l-21.42-64.3h19.12l12.02,40.74l12.3-40.74H1367.43z M1429.82,502.62h-40.11
	c-0.04,1.15-0.06,2.14-0.06,2.99c0,4.58,1.18,8.04,3.55,10.38c2.37,2.33,5.19,3.5,8.48,3.5c6.13,0,9.81-3.37,11.05-10.12l16.66,1.27
	c-4.65,14.85-14.09,22.28-28.33,22.28c-6.21,0-11.49-1.28-15.83-3.85c-4.34-2.57-7.92-6.31-10.74-11.24
	c-2.82-4.92-4.23-10.82-4.23-17.7c0-10.23,2.83-18.48,8.49-24.77c5.66-6.28,12.93-9.42,21.82-9.42c8.02,0,14.9,2.92,20.64,8.75
	C1426.95,480.54,1429.82,489.85,1429.82,502.62z M1389.64,491.61h22.15c-0.58-8.83-4.09-13.24-10.55-13.24
	C1394.33,478.37,1390.47,482.78,1389.64,491.61z M671.93,635.08h-40.11c-0.04,1.15-0.06,2.14-0.06,2.99c0,4.58,1.18,8.04,3.55,10.38
	c2.37,2.33,5.19,3.5,8.49,3.5c6.13,0,9.81-3.37,11.05-10.12l16.66,1.27c-4.65,14.85-14.09,22.28-28.33,22.28
	c-6.21,0-11.49-1.28-15.83-3.85c-4.34-2.57-7.92-6.31-10.74-11.24c-2.82-4.92-4.23-10.82-4.23-17.7c0-10.23,2.83-18.48,8.49-24.76
	c5.66-6.28,12.93-9.42,21.82-9.42c8.02,0,14.9,2.92,20.64,8.75C669.06,613,671.93,622.3,671.93,635.08z M631.75,624.07h22.15
	c-0.58-8.83-4.09-13.24-10.55-13.24C636.44,610.82,632.57,615.24,631.75,624.07z M733.39,599.75l-17.98,29.77l21.01,34.53h-20.97
	l-12.95-22.19l-12.76,22.19h-15.71l20.61-34.67l-17.77-29.63h20.97l9.93,17.39l9.92-17.39H733.39z M744.01,685.75v-86.01h16.91v9.42
	c3.13-7.17,8.6-10.76,16.42-10.76c6.75,0,12.27,2.79,16.57,8.37c4.3,5.58,6.45,13.7,6.45,24.35c0,11.33-2.17,19.87-6.51,25.62
	c-4.34,5.75-9.99,8.63-16.94,8.63c-7.04,0-12.06-2.82-15.06-8.47v28.84H744.01z M761.84,635.91c0,4.54,0.27,7.68,0.8,9.42
	c0.53,1.74,1.67,3.3,3.39,4.68c1.73,1.38,3.6,2.07,5.62,2.07c2.51,0,4.75-1.33,6.73-3.98c1.98-2.65,2.96-8.5,2.96-17.54
	c0-12.69-3.25-19.04-9.75-19.04c-2.47,0-4.71,1.13-6.73,3.38c-2.02,2.25-3.02,6.07-3.02,11.46V635.91z M868.17,635.08h-40.11
	c-0.04,1.15-0.06,2.14-0.06,2.99c0,4.58,1.18,8.04,3.55,10.38c2.37,2.33,5.19,3.5,8.49,3.5c6.13,0,9.81-3.37,11.05-10.12l16.66,1.27
	c-4.65,14.85-14.09,22.28-28.33,22.28c-6.21,0-11.49-1.28-15.83-3.85c-4.34-2.57-7.92-6.31-10.74-11.24
	c-2.82-4.92-4.23-10.82-4.23-17.7c0-10.23,2.83-18.48,8.49-24.76c5.66-6.28,12.93-9.42,21.82-9.42c8.02,0,14.9,2.92,20.64,8.75
	C865.3,613,868.17,622.3,868.17,635.08z M828,624.07h22.15c-0.58-8.83-4.09-13.24-10.55-13.24
	C832.69,610.82,828.82,615.24,828,624.07z M897.61,664.05h-17.83v-64.3h16.85v11.97c2.59-8.91,7.08-13.37,13.45-13.37
	c0.9,0,2.02,0.06,3.33,0.19v18.72c-3.74,0-6.66,0.59-8.73,1.78c-2.08,1.19-3.77,3.32-5.09,6.4c-1.32,3.08-1.97,7.23-1.97,12.45
	V664.05z M942.04,575.36v18.97h-18.39v-18.97H942.04z M942.04,599.75v64.3h-18.39v-64.3H942.04z M1013.14,635.08h-40.11
	c-0.04,1.15-0.06,2.14-0.06,2.99c0,4.58,1.18,8.04,3.55,10.38c2.37,2.33,5.19,3.5,8.48,3.5c6.13,0,9.81-3.37,11.05-10.12l16.66,1.27
	c-4.65,14.85-14.09,22.28-28.33,22.28c-6.21,0-11.49-1.28-15.83-3.85c-4.34-2.57-7.92-6.31-10.74-11.24
	c-2.82-4.92-4.23-10.82-4.23-17.7c0-10.23,2.83-18.48,8.49-24.76c5.66-6.28,12.93-9.42,21.82-9.42c8.02,0,14.9,2.92,20.64,8.75
	C1010.27,613,1013.14,622.3,1013.14,635.08z M972.96,624.07h22.15c-0.58-8.83-4.09-13.24-10.55-13.24
	C977.65,610.82,973.78,615.24,972.96,624.07z M1078.92,664.05h-18.39v-36.1c0-4.37-0.17-7.36-0.49-8.98
	c-0.33-1.61-1.13-2.98-2.41-4.11c-1.28-1.12-2.88-1.69-4.81-1.69c-6.46,0-9.69,4.92-9.69,14.77v36.1h-18.39v-64.3h17.09v10.89
	c2.84-5.18,5.64-8.51,8.39-10c2.76-1.49,5.74-2.23,8.95-2.23c5.92,0,10.7,1.64,14.32,4.93c3.62,3.29,5.43,9.75,5.43,19.38V664.05z
	 M1148.9,639.92c-0.7,7.6-3.61,13.74-8.73,18.43c-5.12,4.69-11.74,7.04-19.84,7.04c-8.8,0-15.97-3-21.51-9.01
	c-5.53-6.01-8.3-14.04-8.3-24.1c0-10.06,2.83-18.22,8.49-24.48c5.66-6.26,13.22-9.39,22.68-9.39c7.61,0,13.92,2.36,18.92,7.07
	c5,4.71,7.77,10.61,8.3,17.7l-17.16,1.02c-0.58-7.72-3.83-11.59-9.75-11.59c-7.28,0-10.92,6.15-10.92,18.46
	c0,8.19,1.02,13.39,3.05,15.6c2.04,2.21,4.51,3.31,7.44,3.31c5.68,0,9.07-3.71,10.18-11.14L1148.9,639.92z M1214.75,635.08h-40.11
	c-0.04,1.15-0.06,2.14-0.06,2.99c0,4.58,1.18,8.04,3.55,10.38c2.37,2.33,5.19,3.5,8.48,3.5c6.13,0,9.81-3.37,11.05-10.12l16.66,1.27
	c-4.65,14.85-14.09,22.28-28.33,22.28c-6.21,0-11.49-1.28-15.83-3.85c-4.34-2.57-7.92-6.31-10.74-11.24
	c-2.82-4.92-4.23-10.82-4.23-17.7c0-10.23,2.83-18.48,8.49-24.76c5.66-6.28,12.93-9.42,21.82-9.42c8.02,0,14.9,2.92,20.64,8.75
	C1211.88,613,1214.75,622.3,1214.75,635.08z M1174.58,624.07h22.15c-0.58-8.83-4.09-13.24-10.55-13.24
	C1179.27,610.82,1175.4,615.24,1174.58,624.07z M1273.01,615.28l-13.39,3.69c-1.56-5.81-5.62-8.72-12.16-8.72
	c-6.17,0-9.26,1.93-9.26,5.8c0,1.53,0.57,2.75,1.7,3.67c1.13,0.91,4.08,1.69,8.86,2.32c7.12,0.97,12.38,2.09,15.8,3.36
	c3.41,1.27,6.12,3.42,8.12,6.43c2,3.01,2.99,6.73,2.99,11.14c0,6.62-2.44,12.01-7.31,16.17c-4.88,4.16-11.69,6.24-20.46,6.24
	c-15.88,0-25.36-6.34-28.45-19.04l15.49-2.36c1.27,5.77,5.88,8.66,13.82,8.66c3.04,0,5.62-0.56,7.71-1.69
	c2.1-1.13,3.15-2.65,3.15-4.56c0-2.98-2.32-4.74-6.97-5.29c-12.59-1.6-20.87-4.09-24.84-7.46c-3.97-3.37-5.96-8.07-5.96-14.1
	c0-6.11,2.3-11.16,6.91-15.15c4.61-3.99,11.07-5.98,19.38-5.98c6.58,0,11.85,1.34,15.8,4.01S1270.91,609.38,1273.01,615.28z
	 M1304.36,664.05h-19.07v-19.67h19.07V664.05z"/>
</svg>
