<svg xmlns="http://www.w3.org/2000/svg" viewBox="0 0 1456.38 483.67"><defs><style>.a{fill:none;}</style></defs><title>animationSection2</title><path class="a" d="M488.54,459.25H472.43V327.7h16.11Zm74.4-93v59.3q0,10.56,4.4,16.34t13.29,5.79a23.6,23.6,0,0,0,12.21-3.4,39,39,0,0,0,10.54-9.46V366.26h14.78v93h-8.8q-3.15,0-4-3.39l-1.16-10a47.39,47.39,0,0,1-12.29,10.79,29.77,29.77,0,0,1-15.61,4.08,27.87,27.87,0,0,1-12.16-2.52,24.47,24.47,0,0,1-8.85-7.12A31.32,31.32,0,0,1,550,440a54.41,54.41,0,0,1-1.79-14.41v-59.3Zm127.71,15.33a3.23,3.23,0,0,1-3.07,2,5.42,5.42,0,0,1-2.82-1q-1.57-1-3.86-2.25a34.91,34.91,0,0,0-5.44-2.3A23.79,23.79,0,0,0,668,377a20.18,20.18,0,0,0-6.73,1.05,15.7,15.7,0,0,0-5.11,2.9,12.28,12.28,0,0,0-4.36,9.54,9.42,9.42,0,0,0,1.87,6,16.53,16.53,0,0,0,4.94,4.13,41,41,0,0,0,7,3.08q3.9,1.32,8,2.84t8,3.35a28.9,28.9,0,0,1,7,4.59,20.85,20.85,0,0,1,4.94,6.75,22.41,22.41,0,0,1,1.87,9.59,33.26,33.26,0,0,1-2.08,11.89,26,26,0,0,1-6.14,9.46,29.21,29.21,0,0,1-10,6.29,37.6,37.6,0,0,1-13.62,2.29,38.78,38.78,0,0,1-15.94-3.17,39.94,39.94,0,0,1-12.12-8.12l3.48-6.24a5.46,5.46,0,0,1,1.58-1.84,4.09,4.09,0,0,1,2.41-.64,5.29,5.29,0,0,1,3.16,1.28c1.1.86,2.45,1.81,4,2.85a30,30,0,0,0,5.73,2.85,24,24,0,0,0,8.43,1.28,21,21,0,0,0,7.56-1.24,15.57,15.57,0,0,0,5.4-3.35,13.38,13.38,0,0,0,3.19-4.87,16.52,16.52,0,0,0,1-5.87,10.4,10.4,0,0,0-1.87-6.38,16.2,16.2,0,0,0-4.94-4.32,38.63,38.63,0,0,0-7-3.12c-2.63-.88-5.31-1.82-8.05-2.8a80.8,80.8,0,0,1-8-3.35,28.06,28.06,0,0,1-7-4.72,21.16,21.16,0,0,1-4.94-7,24.65,24.65,0,0,1-1.87-10.14,27,27,0,0,1,2-10.24,25.24,25.24,0,0,1,5.81-8.63A28.29,28.29,0,0,1,655,367a34.26,34.26,0,0,1,12.7-2.2,36.76,36.76,0,0,1,14.91,2.89A35.14,35.14,0,0,1,694,375.62Zm57.22-16.8a34.39,34.39,0,0,1,14,2.8,31.32,31.32,0,0,1,11,8.08,37.74,37.74,0,0,1,7.27,13,55.39,55.39,0,0,1,2.61,17.68c0,2.57-.25,4.28-.75,5.14a3,3,0,0,1-2.82,1.28h-56a56.17,56.17,0,0,0,2.16,15.33A32.49,32.49,0,0,0,730.84,439a22.19,22.19,0,0,0,8.31,6.52,26.09,26.09,0,0,0,10.79,2.16,28.78,28.78,0,0,0,9.59-1.43,43.49,43.49,0,0,0,6.94-3.07,51.83,51.83,0,0,0,4.85-3.08,6.08,6.08,0,0,1,3.37-1.42,3.16,3.16,0,0,1,2.82,1.56l4.15,6a29.24,29.24,0,0,1-6.56,6.38,39.25,39.25,0,0,1-8.18,4.45,48.77,48.77,0,0,1-9,2.62,50,50,0,0,1-9.21.87,39.22,39.22,0,0,1-16.07-3.26,35.35,35.35,0,0,1-12.71-9.55,44.89,44.89,0,0,1-8.34-15.56,69.48,69.48,0,0,1-3-21.3,59.36,59.36,0,0,1,2.7-18.17,44.12,44.12,0,0,1,7.76-14.65,36.14,36.14,0,0,1,12.37-9.73A37.42,37.42,0,0,1,747.87,364.79Zm.33,12q-10.71,0-16.86,6.84t-7.64,19h45.76A36.36,36.36,0,0,0,768,392.19a24,24,0,0,0-4.15-8.17,18.69,18.69,0,0,0-6.68-5.32A20.63,20.63,0,0,0,748.2,376.81Zm147.22,82.44h-6.56a7.21,7.21,0,0,1-3.49-.73,4.14,4.14,0,0,1-1.74-3.12L882,446.77q-3.33,3.3-6.48,5.92a36.57,36.57,0,0,1-6.64,4.4,31.85,31.85,0,0,1-7.43,2.71,38.81,38.81,0,0,1-8.76.92,27.29,27.29,0,0,1-9.18-1.52,20.31,20.31,0,0,1-7.43-4.56,21.69,21.69,0,0,1-5-7.69,29.58,29.58,0,0,1-1.86-11,22.22,22.22,0,0,1,2.74-10.64,25.28,25.28,0,0,1,8.84-9.07,54.24,54.24,0,0,1,16-6.5,99.15,99.15,0,0,1,24.16-2.53v-7.3q0-10.89-4.19-16.49t-12.42-5.59a24,24,0,0,0-9.09,1.52,33,33,0,0,0-6.4,3.4c-1.79,1.25-3.35,2.38-4.64,3.39a6.35,6.35,0,0,1-3.87,1.52,4.15,4.15,0,0,1-2.61-.87,6.58,6.58,0,0,1-1.79-2.16l-2.65-5.23a48,48,0,0,1,15-11.11,42.47,42.47,0,0,1,17.85-3.67,29.15,29.15,0,0,1,12.54,2.57,25.85,25.85,0,0,1,9.21,7.16,31.12,31.12,0,0,1,5.65,11.1,51,51,0,0,1,1.91,14.33Zm-38.36-10a27.06,27.06,0,0,0,7.14-.88,26.45,26.45,0,0,0,6.1-2.47,32.56,32.56,0,0,0,5.48-3.91,48.88,48.88,0,0,0,5.11-5.23V417.57A89.39,89.39,0,0,0,863.53,419a44.82,44.82,0,0,0-11.62,3.74,16.48,16.48,0,0,0-6.52,5.44,12.63,12.63,0,0,0-2,7,17,17,0,0,0,1.08,6.37,11.9,11.9,0,0,0,2.9,4.39,11.09,11.09,0,0,0,4.32,2.49A18,18,0,0,0,857.06,449.25Zm60.78,10v-93h8.8q3.15,0,4,3.39l1.16,10.1A48.48,48.48,0,0,1,944,368.92a29.47,29.47,0,0,1,15.65-4.13,27.92,27.92,0,0,1,12.17,2.52,24,24,0,0,1,8.8,7.16A33,33,0,0,1,986,385.63,53.2,53.2,0,0,1,987.84,400v59.21H973.06V400q0-10.56-4.36-16.39t-13.33-5.83a23.1,23.1,0,0,0-12.25,3.49,41.5,41.5,0,0,0-10.5,9.46v68.48Zm112.1-122.18a11.36,11.36,0,0,1-.87,4.45,13,13,0,0,1-2.33,3.67,10.83,10.83,0,0,1-3.36,2.52,9.16,9.16,0,0,1-4.07.92,8.93,8.93,0,0,1-4-.92,11,11,0,0,1-3.32-2.52,12.18,12.18,0,0,1-2.28-3.67,11.9,11.9,0,0,1-.83-4.45,12.62,12.62,0,0,1,.83-4.55,11.8,11.8,0,0,1,2.28-3.76,11.23,11.23,0,0,1,3.32-2.53,9.06,9.06,0,0,1,4-.92,9.29,9.29,0,0,1,4.07.92,11,11,0,0,1,3.36,2.53,12.48,12.48,0,0,1,2.33,3.76A12,12,0,0,1,1029.94,337.07Zm-3.32,29.19v93h-14.78v-93Zm26.07,93v-93h8.8q3.16,0,4,3.39l1.08,9.55A44.91,44.91,0,0,1,1077,368.83a22.83,22.83,0,0,1,13.41-4q8.55,0,13.83,5.23t7.59,14.14a30.08,30.08,0,0,1,4.61-8.72,27.65,27.65,0,0,1,6.44-6.06,26,26,0,0,1,7.6-3.49,31,31,0,0,1,8.18-1.1,28.52,28.52,0,0,1,11.83,2.34,23.58,23.58,0,0,1,8.8,6.84,31.46,31.46,0,0,1,5.52,11.06,53.58,53.58,0,0,1,1.91,15v59.21h-14.78V400q0-10.92-4.32-16.57t-12.53-5.65a17.25,17.25,0,0,0-6.94,1.43,16.69,16.69,0,0,0-5.77,4.17,19.86,19.86,0,0,0-3.94,6.94A29.37,29.37,0,0,0,1117,400v59.21h-14.78V400q0-11.21-4.07-16.71t-11.87-5.51a17.48,17.48,0,0,0-10.17,3.26,35,35,0,0,0-8.6,8.86v69.31Zm198.13,0h-6.56a7.21,7.21,0,0,1-3.49-.73,4.14,4.14,0,0,1-1.74-3.12l-1.66-8.63c-2.22,2.2-4.37,4.17-6.48,5.92a36.57,36.57,0,0,1-6.64,4.4,31.85,31.85,0,0,1-7.43,2.71,38.81,38.81,0,0,1-8.76.92,27.29,27.29,0,0,1-9.18-1.52,20.31,20.31,0,0,1-7.43-4.56,21.69,21.69,0,0,1-5-7.69,29.58,29.58,0,0,1-1.86-11,22.22,22.22,0,0,1,2.74-10.64,25.28,25.28,0,0,1,8.84-9.07,54.24,54.24,0,0,1,16-6.5,99.15,99.15,0,0,1,24.16-2.53v-7.3q0-10.89-4.19-16.49t-12.42-5.59a24,24,0,0,0-9.09,1.52,32.64,32.64,0,0,0-6.39,3.4c-1.8,1.25-3.36,2.38-4.66,3.39a6.3,6.3,0,0,1-3.86,1.52,4.15,4.15,0,0,1-2.61-.87,6.46,6.46,0,0,1-1.79-2.16l-2.65-5.23a48,48,0,0,1,15-11.11,42.47,42.47,0,0,1,17.85-3.67,29.15,29.15,0,0,1,12.54,2.57,25.85,25.85,0,0,1,9.21,7.16,31.12,31.12,0,0,1,5.65,11.1,51,51,0,0,1,1.91,14.33Zm-38.36-10a27.06,27.06,0,0,0,7.14-.88,26.45,26.45,0,0,0,6.1-2.47,32.56,32.56,0,0,0,5.48-3.91,48.88,48.88,0,0,0,5.11-5.23V417.57a89.39,89.39,0,0,0-17.36,1.44,44.82,44.82,0,0,0-11.62,3.74,16.48,16.48,0,0,0-6.52,5.44,12.63,12.63,0,0,0-2,7,17.19,17.19,0,0,0,1.07,6.37,12,12,0,0,0,2.91,4.39,11.09,11.09,0,0,0,4.32,2.49A18,18,0,0,0,1212.46,449.25Zm86.27,11.47q-10,0-15.32-6.15t-5.36-17.72V379.94h-10.13a3.1,3.1,0,0,1-2.24-.88,3.57,3.57,0,0,1-.91-2.7v-6.52l13.78-1.93,3.41-28.73a3.58,3.58,0,0,1,1.08-2.25,3.23,3.23,0,0,1,2.32-.87h7.48v32h24.08v11.85h-24.08v55.81c0,3.92.85,6.83,2.57,8.72a8.54,8.54,0,0,0,6.64,2.85,10.69,10.69,0,0,0,4-.69,16.22,16.22,0,0,0,3-1.52c.83-.55,1.53-1.05,2.12-1.51a2.61,2.61,0,0,1,1.53-.69c.78,0,1.47.52,2.08,1.56l4.32,7.8a27.14,27.14,0,0,1-9.22,6.2A28.67,28.67,0,0,1,1298.73,460.72ZM1355,337.07a11.18,11.18,0,0,1-.88,4.45,12.92,12.92,0,0,1-2.32,3.67,10.83,10.83,0,0,1-3.36,2.52,9.19,9.19,0,0,1-4.07.92,8.93,8.93,0,0,1-4-.92,10.91,10.91,0,0,1-3.32-2.52,12.41,12.41,0,0,1-2.29-3.67,11.9,11.9,0,0,1-.83-4.45,12.62,12.62,0,0,1,.83-4.55,12,12,0,0,1,2.29-3.76,11.11,11.11,0,0,1,3.32-2.53,9.06,9.06,0,0,1,4-.92,9.33,9.33,0,0,1,4.07.92,11,11,0,0,1,3.36,2.53,12.46,12.46,0,0,1,2.32,3.76A11.86,11.86,0,0,1,1355,337.07Zm-3.32,29.19v93h-14.79v-93Zm60.11-1.47a39.49,39.49,0,0,1,16.65,3.4,35.16,35.16,0,0,1,12.62,9.63,44.06,44.06,0,0,1,8,15.11,71.94,71.94,0,0,1,0,39.61,44,44,0,0,1-8,15,34.75,34.75,0,0,1-12.62,9.6,43.05,43.05,0,0,1-33.3,0,35.22,35.22,0,0,1-12.66-9.6,44,44,0,0,1-8-15,70.71,70.71,0,0,1,0-39.61,44,44,0,0,1,8-15.11,35.65,35.65,0,0,1,12.66-9.63A39.55,39.55,0,0,1,1411.74,364.79Zm0,83q12.46,0,18.6-9.23t6.15-25.75q0-16.62-6.15-25.89t-18.6-9.27a23.74,23.74,0,0,0-11,2.39,21,21,0,0,0-7.76,6.88,32,32,0,0,0-4.65,11.07,71.89,71.89,0,0,0,0,29.6,31.44,31.44,0,0,0,4.65,11,21.1,21.1,0,0,0,7.76,6.84A23.74,23.74,0,0,0,1411.74,447.78Zm58.3,11.47v-93h8.8q3.15,0,4,3.39l1.17,10.1a48.44,48.44,0,0,1,12.24-10.83,29.5,29.5,0,0,1,15.66-4.13,27.87,27.87,0,0,1,12.16,2.52,23.86,23.86,0,0,1,8.8,7.16,32.81,32.81,0,0,1,5.36,11.16A53.2,53.2,0,0,1,1540,400v59.21h-14.78V400q0-10.56-4.36-16.39t-13.33-5.83a23.07,23.07,0,0,0-12.25,3.49,41.5,41.5,0,0,0-10.5,9.46v68.48ZM306.86,619.84q-10,0-15.32-6.15T286.19,596V539.06H276.05a3.13,3.13,0,0,1-2.24-.87,3.61,3.61,0,0,1-.91-2.71V529L286.68,527l3.41-28.73a3.58,3.58,0,0,1,1.08-2.25,3.23,3.23,0,0,1,2.32-.87H301v32h24.08v11.85H301v55.81c0,3.92.85,6.83,2.57,8.72a8.53,8.53,0,0,0,6.64,2.85,10.72,10.72,0,0,0,4-.69,16.88,16.88,0,0,0,3-1.51c.83-.56,1.53-1.06,2.12-1.52a2.61,2.61,0,0,1,1.53-.69c.78,0,1.47.52,2.08,1.56l4.32,7.81a27.26,27.26,0,0,1-9.22,6.19A28.67,28.67,0,0,1,306.86,619.84Zm70.5-95.93a39.55,39.55,0,0,1,16.65,3.4A35.16,35.16,0,0,1,406.63,537a43.74,43.74,0,0,1,8,15.1,71.94,71.94,0,0,1,0,39.61,43.86,43.86,0,0,1-8,15.05,34.83,34.83,0,0,1-12.62,9.6,43.05,43.05,0,0,1-33.3,0,35.05,35.05,0,0,1-12.66-9.6A44,44,0,0,1,340,591.66a71,71,0,0,1,0-39.61,43.88,43.88,0,0,1,8.06-15.1,35.38,35.38,0,0,1,12.66-9.64A39.49,39.49,0,0,1,377.36,523.91Zm0,83q12.45,0,18.6-9.23t6.14-25.75q0-16.6-6.14-25.89t-18.6-9.27a23.71,23.71,0,0,0-11,2.39,21.14,21.14,0,0,0-7.77,6.88A32.37,32.37,0,0,0,354,557.1a72.35,72.35,0,0,0,0,29.6,31.82,31.82,0,0,0,4.65,11,21.21,21.21,0,0,0,7.77,6.84A23.71,23.71,0,0,0,377.36,606.9Zm147.72-65a6.5,6.5,0,0,1-1.33,1.56,2.9,2.9,0,0,1-1.91.55,4.51,4.51,0,0,1-2.7-1.14,38.91,38.91,0,0,0-3.69-2.53,29.18,29.18,0,0,0-5.44-2.52,23.27,23.27,0,0,0-7.85-1.15,23.53,23.53,0,0,0-10.88,2.43,21.84,21.84,0,0,0-7.93,7,33.34,33.34,0,0,0-4.81,11.1,60.69,60.69,0,0,0-1.62,14.6,58.78,58.78,0,0,0,1.74,15,34.24,34.24,0,0,0,4.9,11,21.5,21.5,0,0,0,7.68,6.79A21.84,21.84,0,0,0,501.42,607a23.69,23.69,0,0,0,8.88-1.42,26.16,26.16,0,0,0,5.81-3.17,41.64,41.64,0,0,0,3.82-3.17,4.4,4.4,0,0,1,3-1.42,3.05,3.05,0,0,1,2.83,1.56l4.15,6a32.41,32.41,0,0,1-13.7,10.88,44.59,44.59,0,0,1-17.36,3.44,33.26,33.26,0,0,1-26.4-12.53,45.42,45.42,0,0,1-7.85-15,66.19,66.19,0,0,1-2.87-20.29,67.39,67.39,0,0,1,2.62-19.19A44.94,44.94,0,0,1,472,537.45a35.06,35.06,0,0,1,12.41-10,38.37,38.37,0,0,1,16.94-3.58,36.64,36.64,0,0,1,15.61,3.17A37.21,37.21,0,0,1,529,536Zm20.18,76.47v-93h8.47a4.39,4.39,0,0,1,3.32,1,6.62,6.62,0,0,1,1.25,3.49l1,14.5q4.32-9.72,10.67-15.19a22.17,22.17,0,0,1,14.91-5.46,21.39,21.39,0,0,1,6.31.87,21,21,0,0,1,5.23,2.43l-1.91,12.21c-.39,1.53-1.25,2.3-2.57,2.3a11.6,11.6,0,0,1-3.57-.88,20.58,20.58,0,0,0-6.73-.87,17.94,17.94,0,0,0-12.91,5q-5.19,4.95-8.68,14.41v59.21Zm100.23-94.46a34.39,34.39,0,0,1,14,2.8,31.32,31.32,0,0,1,11,8.08,37.74,37.74,0,0,1,7.27,13,55.39,55.39,0,0,1,2.61,17.68c0,2.57-.25,4.28-.75,5.14a3,3,0,0,1-2.82,1.28h-56A56.17,56.17,0,0,0,623,587.25a32.49,32.49,0,0,0,5.48,10.88,22.19,22.19,0,0,0,8.31,6.52,26.09,26.09,0,0,0,10.79,2.16,28.78,28.78,0,0,0,9.59-1.43,42.61,42.61,0,0,0,6.94-3.07,51.83,51.83,0,0,0,4.85-3.08,6.05,6.05,0,0,1,3.37-1.42,3.16,3.16,0,0,1,2.82,1.56l4.15,6a29.23,29.23,0,0,1-6.56,6.38,39.51,39.51,0,0,1-8.18,4.45,48,48,0,0,1-9,2.62,50,50,0,0,1-9.21.87,39.22,39.22,0,0,1-16.07-3.26,35.35,35.35,0,0,1-12.71-9.55,44.89,44.89,0,0,1-8.34-15.56,69.18,69.18,0,0,1-3-21.3,59.36,59.36,0,0,1,2.7-18.17,44,44,0,0,1,7.76-14.64A36,36,0,0,1,629,527.44,37.39,37.39,0,0,1,645.49,523.91Zm.33,12q-10.71,0-16.86,6.84t-7.64,19h45.76a36.41,36.41,0,0,0-1.42-10.42,24,24,0,0,0-4.15-8.17,18.77,18.77,0,0,0-6.68-5.32A20.63,20.63,0,0,0,645.82,535.94ZM761,618.37h-6.56a7.21,7.21,0,0,1-3.49-.73,4.08,4.08,0,0,1-1.74-3.12l-1.66-8.63q-3.33,3.3-6.48,5.92a37.16,37.16,0,0,1-6.64,4.41,32.37,32.37,0,0,1-7.44,2.7,38.24,38.24,0,0,1-8.76.92,27.27,27.27,0,0,1-9.17-1.52,20.31,20.31,0,0,1-7.43-4.56,21.69,21.69,0,0,1-5-7.69,29.57,29.57,0,0,1-1.87-11,22.33,22.33,0,0,1,2.74-10.64,25.4,25.4,0,0,1,8.85-9.07,53.91,53.91,0,0,1,16-6.49,98.76,98.76,0,0,1,24.17-2.54V559q0-10.89-4.2-16.48T729.85,537a24,24,0,0,0-9.09,1.51,32.74,32.74,0,0,0-6.4,3.4q-2.7,1.88-4.65,3.39a6.32,6.32,0,0,1-3.86,1.52,4.11,4.11,0,0,1-2.61-.87,6.36,6.36,0,0,1-1.79-2.16l-2.66-5.23a48,48,0,0,1,15-11.11,42.51,42.51,0,0,1,17.86-3.67,29.08,29.08,0,0,1,12.53,2.57,25.8,25.8,0,0,1,9.22,7.16,31.41,31.41,0,0,1,5.65,11.11A50.88,50.88,0,0,1,761,558.89Zm-38.36-10a27.5,27.5,0,0,0,7.14-.87,26.92,26.92,0,0,0,6.1-2.48,31.47,31.47,0,0,0,5.48-3.91,48.9,48.9,0,0,0,5.11-5.23V576.7a89.47,89.47,0,0,0-17.36,1.43,44.82,44.82,0,0,0-11.62,3.74,16.49,16.49,0,0,0-6.52,5.44,12.64,12.64,0,0,0-2,7A17,17,0,0,0,710,600.7a12,12,0,0,0,2.91,4.39,11.09,11.09,0,0,0,4.32,2.49A17.67,17.67,0,0,0,722.63,608.37Zm86.27,11.47q-10,0-15.32-6.15T788.22,596V539.06H778.09a3.13,3.13,0,0,1-2.24-.87,3.61,3.61,0,0,1-.91-2.71V529L788.72,527l3.41-28.73a3.58,3.58,0,0,1,1.08-2.25,3.21,3.21,0,0,1,2.32-.87H803v32h24.08v11.85H803v55.81q0,5.88,2.58,8.72a8.53,8.53,0,0,0,6.64,2.85,10.72,10.72,0,0,0,4-.69,16.88,16.88,0,0,0,3-1.51c.83-.56,1.53-1.06,2.11-1.52a2.66,2.66,0,0,1,1.54-.69c.78,0,1.47.52,2.08,1.56l4.31,7.81a27.12,27.12,0,0,1-9.21,6.19A28.67,28.67,0,0,1,808.9,619.84Zm69.75-95.93a34.32,34.32,0,0,1,14,2.8,31.32,31.32,0,0,1,11,8.08,37.58,37.58,0,0,1,7.27,13,55.38,55.38,0,0,1,2.62,17.68c0,2.57-.25,4.28-.75,5.14a3,3,0,0,1-2.83,1.28H854a56.17,56.17,0,0,0,2.16,15.33,32.13,32.13,0,0,0,5.48,10.88,22.08,22.08,0,0,0,8.3,6.52,26.1,26.1,0,0,0,10.8,2.16,28.87,28.87,0,0,0,9.59-1.43,42.86,42.86,0,0,0,6.93-3.07,50.82,50.82,0,0,0,4.86-3.08,6.05,6.05,0,0,1,3.36-1.42,3.15,3.15,0,0,1,2.82,1.56l4.16,6a29.44,29.44,0,0,1-6.56,6.38,39.76,39.76,0,0,1-8.18,4.45,48.23,48.23,0,0,1-9,2.62,50.1,50.1,0,0,1-9.22.87,39.25,39.25,0,0,1-16.07-3.26,35.32,35.32,0,0,1-12.7-9.55,44.91,44.91,0,0,1-8.35-15.56,69.48,69.48,0,0,1-3-21.3,59.36,59.36,0,0,1,2.7-18.17,44.16,44.16,0,0,1,7.76-14.64,36.08,36.08,0,0,1,12.38-9.74A37.35,37.35,0,0,1,878.65,523.91Zm.33,12q-10.71,0-16.86,6.84t-7.63,19h45.75a36.42,36.42,0,0,0-1.41-10.42,24.13,24.13,0,0,0-4.15-8.17,18.81,18.81,0,0,0-6.69-5.32A20.59,20.59,0,0,0,879,535.94Zm105.21-39.75a11.36,11.36,0,0,1-.87,4.45,13,13,0,0,1-2.33,3.67,11,11,0,0,1-3.36,2.53,9.32,9.32,0,0,1-4.07.91,9.05,9.05,0,0,1-4-.91,11.23,11.23,0,0,1-3.32-2.53,12.06,12.06,0,0,1-2.28-3.67,11.7,11.7,0,0,1-.83-4.45,12.45,12.45,0,0,1,.83-4.55,11.91,11.91,0,0,1,2.28-3.76,11.23,11.23,0,0,1,3.32-2.53,9.05,9.05,0,0,1,4-.91,9.32,9.32,0,0,1,4.07.91,11,11,0,0,1,3.36,2.53,12.81,12.81,0,0,1,2.33,3.76A12.08,12.08,0,0,1,984.19,496.19Zm-3.32,29.19v93H966.08v-93Zm26.07,93v-93h8.8q3.15,0,4,3.4l1.16,10.09A48.67,48.67,0,0,1,1033.14,528a29.47,29.47,0,0,1,15.65-4.13,28,28,0,0,1,12.17,2.52,24,24,0,0,1,8.8,7.17,32.84,32.84,0,0,1,5.35,11.15,53.2,53.2,0,0,1,1.83,14.41v59.21h-14.78V559.16q0-10.54-4.36-16.38T1044.47,537a23.09,23.09,0,0,0-12.25,3.48,41.5,41.5,0,0,0-10.5,9.46v68.48Zm117.83,1.47q-10,0-15.32-6.15T1104.09,596V539.06H1094a3.13,3.13,0,0,1-2.24-.87,3.61,3.61,0,0,1-.91-2.71V529l13.78-1.93L1108,498.3a3.58,3.58,0,0,1,1.08-2.25,3.21,3.21,0,0,1,2.32-.87h7.47v32H1143v11.85h-24.09v55.81q0,5.88,2.58,8.72a8.53,8.53,0,0,0,6.64,2.85,10.72,10.72,0,0,0,4-.69,16.88,16.88,0,0,0,3-1.51c.83-.56,1.53-1.06,2.11-1.52a2.64,2.64,0,0,1,1.54-.69c.77,0,1.47.52,2.08,1.56l4.31,7.81a27.22,27.22,0,0,1-9.21,6.19A28.67,28.67,0,0,1,1124.77,619.84Zm69.75-95.93a34.32,34.32,0,0,1,14,2.8,31.32,31.32,0,0,1,11,8.08,37.58,37.58,0,0,1,7.27,13,55.38,55.38,0,0,1,2.62,17.68c0,2.57-.25,4.28-.75,5.14a3,3,0,0,1-2.83,1.28h-56a56.17,56.17,0,0,0,2.16,15.33,32.13,32.13,0,0,0,5.48,10.88,22.08,22.08,0,0,0,8.3,6.52,26.1,26.1,0,0,0,10.8,2.16,28.87,28.87,0,0,0,9.59-1.43,42.86,42.86,0,0,0,6.93-3.07,50.82,50.82,0,0,0,4.86-3.08,6.05,6.05,0,0,1,3.36-1.42,3.15,3.15,0,0,1,2.82,1.56l4.16,6a29.44,29.44,0,0,1-6.56,6.38,39.76,39.76,0,0,1-8.18,4.45,48.23,48.23,0,0,1-9,2.62,50.1,50.1,0,0,1-9.22.87,39.25,39.25,0,0,1-16.07-3.26,35.32,35.32,0,0,1-12.7-9.55,44.91,44.91,0,0,1-8.35-15.56,69.48,69.48,0,0,1-3-21.3,59.36,59.36,0,0,1,2.7-18.17,44,44,0,0,1,7.77-14.64,36,36,0,0,1,12.37-9.74A37.35,37.35,0,0,1,1194.52,523.91Zm.33,12q-10.71,0-16.85,6.84t-7.64,19h45.75a36.42,36.42,0,0,0-1.41-10.42,24.13,24.13,0,0,0-4.15-8.17,18.81,18.81,0,0,0-6.69-5.32A20.59,20.59,0,0,0,1194.85,535.94Zm53.39,82.43v-93h8.47a4.37,4.37,0,0,1,3.32,1,6.54,6.54,0,0,1,1.25,3.49l1,14.5q4.31-9.72,10.67-15.19a22.13,22.13,0,0,1,14.9-5.46,21.34,21.34,0,0,1,6.31.87,20.81,20.81,0,0,1,5.23,2.43l-1.91,12.21c-.38,1.53-1.24,2.3-2.57,2.3a11.6,11.6,0,0,1-3.57-.88,20.58,20.58,0,0,0-6.73-.87,17.94,17.94,0,0,0-12.91,5q-5.19,4.95-8.68,14.41v59.21Zm125.56,0h-6.56a7.18,7.18,0,0,1-3.49-.73,4.12,4.12,0,0,1-1.75-3.12l-1.66-8.63q-3.31,3.3-6.47,5.92a37.23,37.23,0,0,1-6.65,4.41,32.12,32.12,0,0,1-7.43,2.7,38.24,38.24,0,0,1-8.76.92,27.23,27.23,0,0,1-9.17-1.52,20.35,20.35,0,0,1-7.44-4.56,21.81,21.81,0,0,1-5-7.69,29.57,29.57,0,0,1-1.87-11,22.33,22.33,0,0,1,2.74-10.64,25.4,25.4,0,0,1,8.85-9.07,53.8,53.8,0,0,1,16-6.49,98.67,98.67,0,0,1,24.16-2.54V559q0-10.89-4.19-16.48T1342.66,537a24.09,24.09,0,0,0-9.1,1.51,32.93,32.93,0,0,0-6.39,3.4q-2.7,1.88-4.65,3.39a6.32,6.32,0,0,1-3.86,1.52,4.15,4.15,0,0,1-2.62-.87,6.45,6.45,0,0,1-1.78-2.16l-2.66-5.23a48,48,0,0,1,15-11.11,42.5,42.5,0,0,1,17.85-3.67A29.09,29.09,0,0,1,1357,526.3a25.8,25.8,0,0,1,9.22,7.16,31.41,31.41,0,0,1,5.65,11.11,50.88,50.88,0,0,1,1.91,14.32Zm-38.37-10a27.44,27.44,0,0,0,7.14-.87,27,27,0,0,0,6.11-2.48,31.85,31.85,0,0,0,5.48-3.91,48.84,48.84,0,0,0,5.1-5.23V576.7a89.43,89.43,0,0,0-17.35,1.43,44.91,44.91,0,0,0-11.63,3.74,16.46,16.46,0,0,0-6.51,5.44,12.64,12.64,0,0,0-2,7,17,17,0,0,0,1.08,6.37,12,12,0,0,0,2.91,4.39,11,11,0,0,0,4.32,2.49A17.6,17.6,0,0,0,1335.43,608.37Zm118.16-66.47a6.5,6.5,0,0,1-1.33,1.56,2.87,2.87,0,0,1-1.9.55,4.46,4.46,0,0,1-2.7-1.14,37.94,37.94,0,0,0-3.7-2.53,28.89,28.89,0,0,0-5.44-2.52,26.26,26.26,0,0,0-18.72,1.28,21.68,21.68,0,0,0-7.93,7,33.35,33.35,0,0,0-4.82,11.1,60.69,60.69,0,0,0-1.62,14.6,58.32,58.32,0,0,0,1.75,15,34,34,0,0,0,4.89,11,21.45,21.45,0,0,0,7.69,6.79,21.77,21.77,0,0,0,10.17,2.34,23.66,23.66,0,0,0,8.88-1.42,26.25,26.25,0,0,0,5.82-3.17,44.55,44.55,0,0,0,3.82-3.17,4.36,4.36,0,0,1,3-1.42,3.05,3.05,0,0,1,2.83,1.56l4.15,6a32.35,32.35,0,0,1-13.7,10.88,44.59,44.59,0,0,1-17.36,3.44,33.26,33.26,0,0,1-26.4-12.53,45.61,45.61,0,0,1-7.85-15,66.2,66.2,0,0,1-2.86-20.29,67.4,67.4,0,0,1,2.61-19.19,44.94,44.94,0,0,1,7.64-15.19,35.09,35.09,0,0,1,12.42-10,38.3,38.3,0,0,1,16.93-3.58,36.68,36.68,0,0,1,15.62,3.17,37.42,37.42,0,0,1,12,8.95Zm45.67,77.94q-10,0-15.32-6.15T1478.59,596V539.06h-10.13a3.14,3.14,0,0,1-2.25-.87,3.61,3.61,0,0,1-.91-2.71V529l13.78-1.93,3.41-28.73a3.58,3.58,0,0,1,1.08-2.25,3.23,3.23,0,0,1,2.32-.87h7.48v32h24.08v11.85h-24.08v55.81q0,5.88,2.57,8.72a8.54,8.54,0,0,0,6.64,2.85,10.69,10.69,0,0,0,4-.69,16.53,16.53,0,0,0,3-1.51c.83-.56,1.54-1.06,2.12-1.52a2.61,2.61,0,0,1,1.53-.69c.78,0,1.47.52,2.08,1.56l4.32,7.81a27.26,27.26,0,0,1-9.22,6.19A28.67,28.67,0,0,1,1499.26,619.84Zm56.22-123.65a11.36,11.36,0,0,1-.87,4.45,12.81,12.81,0,0,1-2.33,3.67,11,11,0,0,1-3.36,2.53,9.32,9.32,0,0,1-4.07.91,9.05,9.05,0,0,1-4-.91,11.23,11.23,0,0,1-3.32-2.53,12.06,12.06,0,0,1-2.28-3.67,11.7,11.7,0,0,1-.83-4.45,12.45,12.45,0,0,1,.83-4.55,11.91,11.91,0,0,1,2.28-3.76,11.23,11.23,0,0,1,3.32-2.53,9.05,9.05,0,0,1,4-.91,9.32,9.32,0,0,1,4.07.91,11,11,0,0,1,3.36,2.53,12.61,12.61,0,0,1,2.33,3.76A12.08,12.08,0,0,1,1555.48,496.19Zm-3.32,29.19v93h-14.78v-93Zm15.44,0h12.12a4.28,4.28,0,0,1,2.91,1,5.61,5.61,0,0,1,1.66,2.39l21.34,59.85a47.91,47.91,0,0,1,1.83,6.61c.44,2.2.86,4.38,1.25,6.52.44-2.14.91-4.32,1.41-6.52a58.71,58.71,0,0,1,1.91-6.61l21.59-59.85a5.47,5.47,0,0,1,1.62-2.44,4.1,4.1,0,0,1,2.78-1h11.54l-34.3,93H1601.9Zm126.8-1.47a34.32,34.32,0,0,1,13.95,2.8,31.44,31.44,0,0,1,11.05,8.08,37.56,37.56,0,0,1,7.26,13,55.1,55.1,0,0,1,2.62,17.68c0,2.57-.25,4.28-.75,5.14a3,3,0,0,1-2.82,1.28h-56a56.17,56.17,0,0,0,2.16,15.33,32.31,32.31,0,0,0,5.48,10.88,22.08,22.08,0,0,0,8.3,6.52,26.1,26.1,0,0,0,10.8,2.16,28.83,28.83,0,0,0,9.59-1.43,42.86,42.86,0,0,0,6.93-3.07,50.82,50.82,0,0,0,4.86-3.08,6.05,6.05,0,0,1,3.36-1.42,3.18,3.18,0,0,1,2.83,1.56l4.15,6a29.44,29.44,0,0,1-6.56,6.38,39.76,39.76,0,0,1-8.18,4.45,48.23,48.23,0,0,1-9,2.62,50,50,0,0,1-9.22.87,39.25,39.25,0,0,1-16.07-3.26,35.32,35.32,0,0,1-12.7-9.55,45.07,45.07,0,0,1-8.35-15.56,69.48,69.48,0,0,1-3-21.3,59.36,59.36,0,0,1,2.7-18.17,44,44,0,0,1,7.77-14.64,36,36,0,0,1,12.37-9.74A37.35,37.35,0,0,1,1694.4,523.91Zm.33,12q-10.71,0-16.85,6.84t-7.64,19H1716a36.42,36.42,0,0,0-1.41-10.42,24.13,24.13,0,0,0-4.15-8.17,18.81,18.81,0,0,0-6.69-5.32A20.59,20.59,0,0,0,1694.73,535.94ZM613.1,683a34.32,34.32,0,0,1,13.95,2.8,31.32,31.32,0,0,1,11,8.08,37.54,37.54,0,0,1,7.27,13A55.27,55.27,0,0,1,648,724.62c0,2.57-.25,4.28-.75,5.14A3,3,0,0,1,644.4,731h-56a56.17,56.17,0,0,0,2.16,15.33,32,32,0,0,0,5.48,10.88,22.08,22.08,0,0,0,8.3,6.52,26.1,26.1,0,0,0,10.8,2.16,28.87,28.87,0,0,0,9.59-1.43,42.86,42.86,0,0,0,6.93-3.07,50.82,50.82,0,0,0,4.86-3.08,6.13,6.13,0,0,1,3.36-1.42,3.15,3.15,0,0,1,2.82,1.56l4.16,6a29.44,29.44,0,0,1-6.56,6.38,39.76,39.76,0,0,1-8.18,4.45,48.23,48.23,0,0,1-9,2.62,50.1,50.1,0,0,1-9.22.87,39.25,39.25,0,0,1-16.07-3.26,35.2,35.2,0,0,1-12.7-9.55,44.91,44.91,0,0,1-8.35-15.56,69.46,69.46,0,0,1-3-21.29,59.38,59.38,0,0,1,2.7-18.18,44,44,0,0,1,7.77-14.64,35.93,35.93,0,0,1,12.37-9.73A37.21,37.21,0,0,1,613.1,683Zm.33,12q-10.71,0-16.86,6.84t-7.63,19h45.75a36.42,36.42,0,0,0-1.41-10.42,24.13,24.13,0,0,0-4.15-8.17,18.81,18.81,0,0,0-6.69-5.32A20.74,20.74,0,0,0,613.43,695.06Zm68.09,34.79L653.21,684.5H667.4a4.35,4.35,0,0,1,2.66.64,6.06,6.06,0,0,1,1.5,1.84l20.59,34.88a25.85,25.85,0,0,1,2.16-5.14l18.1-29.37a11,11,0,0,1,1.66-2.07,2.92,2.92,0,0,1,2.08-.78h13.62l-28.32,44.43,29.48,48.56h-14.2a3.87,3.87,0,0,1-2.87-1,9.47,9.47,0,0,1-1.7-2.34L691,737.65a17.58,17.58,0,0,1-1.75,4.78L669.65,774.1a18,18,0,0,1-1.79,2.34,3.36,3.36,0,0,1-2.61,1H652Zm64,79.13V684.5h8.8q3.17,0,4,3.4l1.25,11a46.34,46.34,0,0,1,12.33-11.66,29.2,29.2,0,0,1,16-4.4A27,27,0,0,1,811.06,695a45.56,45.56,0,0,1,6.39,14.92,84,84,0,0,1,2.25,20.47,70.48,70.48,0,0,1-2.5,19.14,48.43,48.43,0,0,1-7.14,15.33,34.18,34.18,0,0,1-11.41,10.19,31.15,31.15,0,0,1-15.24,3.72,28.75,28.75,0,0,1-13.33-2.85,30.57,30.57,0,0,1-9.76-8.07V809ZM783,696.07a22.06,22.06,0,0,0-12.66,3.67,38.42,38.42,0,0,0-10,10.37v45q4.08,6.06,8.93,8.54a23.53,23.53,0,0,0,10.84,2.48q11.7,0,18-9.27t6.31-26.44A72.61,72.61,0,0,0,803,714.79a32.16,32.16,0,0,0-4.19-10.69A16.78,16.78,0,0,0,792,698,20.43,20.43,0,0,0,783,696.07Zm87.52-13a34.32,34.32,0,0,1,14,2.8,31.26,31.26,0,0,1,11,8.08,37.52,37.52,0,0,1,7.26,13,55,55,0,0,1,2.62,17.67c0,2.57-.25,4.28-.75,5.14a3,3,0,0,1-2.82,1.28h-56A56.17,56.17,0,0,0,848,746.37a32.22,32.22,0,0,0,5.48,10.88,22.08,22.08,0,0,0,8.3,6.52,26.1,26.1,0,0,0,10.8,2.16,28.83,28.83,0,0,0,9.59-1.43,42.86,42.86,0,0,0,6.93-3.07,50.82,50.82,0,0,0,4.86-3.08,6.13,6.13,0,0,1,3.36-1.42,3.18,3.18,0,0,1,2.83,1.56l4.15,6a29.44,29.44,0,0,1-6.56,6.38,39.51,39.51,0,0,1-8.18,4.45,48.23,48.23,0,0,1-9,2.62,50,50,0,0,1-9.22.87,39.25,39.25,0,0,1-16.07-3.26,35.29,35.29,0,0,1-12.7-9.55,44.89,44.89,0,0,1-8.34-15.56,69.16,69.16,0,0,1-3-21.29,59.38,59.38,0,0,1,2.69-18.18,44,44,0,0,1,7.77-14.64,35.93,35.93,0,0,1,12.37-9.73A37.21,37.21,0,0,1,870.51,683Zm.33,12q-10.71,0-16.85,6.84t-7.64,19H892.1a36.42,36.42,0,0,0-1.41-10.42,24,24,0,0,0-4.15-8.17,18.81,18.81,0,0,0-6.69-5.32A20.74,20.74,0,0,0,870.84,695.06Zm53.4,82.43v-93h8.47a4.39,4.39,0,0,1,3.32,1,6.54,6.54,0,0,1,1.24,3.49l1,14.5q4.32-9.72,10.67-15.19a22.13,22.13,0,0,1,14.9-5.46,21.46,21.46,0,0,1,6.32.87,21,21,0,0,1,5.23,2.43l-1.91,12.21c-.39,1.53-1.25,2.3-2.58,2.3a12,12,0,0,1-3.57-.87,20.21,20.21,0,0,0-6.72-.88,18,18,0,0,0-12.92,5q-5.19,4.95-8.67,14.41v59.21Zm86.69-122.18a11.36,11.36,0,0,1-.87,4.45,13,13,0,0,1-2.33,3.67,10.86,10.86,0,0,1-3.36,2.53,9.32,9.32,0,0,1-4.07.91,9.05,9.05,0,0,1-4-.91,11.07,11.07,0,0,1-3.32-2.53,12.06,12.06,0,0,1-2.28-3.67,11.7,11.7,0,0,1-.83-4.45,12.45,12.45,0,0,1,.83-4.55A11.91,11.91,0,0,1,993,647a11.23,11.23,0,0,1,3.32-2.53,9.05,9.05,0,0,1,4-.91,9.32,9.32,0,0,1,4.07.91,11,11,0,0,1,3.36,2.53,12.81,12.81,0,0,1,2.33,3.76A12.08,12.08,0,0,1,1010.93,655.31Zm-3.32,29.19v93H992.83v-93ZM1067,683a34.39,34.39,0,0,1,14,2.8,31.32,31.32,0,0,1,11,8.08,37.7,37.7,0,0,1,7.27,13,55.28,55.28,0,0,1,2.61,17.67c0,2.57-.25,4.28-.74,5.14a3,3,0,0,1-2.83,1.28h-56a56.59,56.59,0,0,0,2.15,15.33,32.23,32.23,0,0,0,5.49,10.88,22.08,22.08,0,0,0,8.3,6.52,26.09,26.09,0,0,0,10.79,2.16,28.78,28.78,0,0,0,9.59-1.43,42.61,42.61,0,0,0,6.94-3.07,53.49,53.49,0,0,0,4.86-3.08,6.13,6.13,0,0,1,3.36-1.42,3.15,3.15,0,0,1,2.82,1.56l4.15,6a29,29,0,0,1-6.56,6.38,39.25,39.25,0,0,1-8.18,4.45,47.91,47.91,0,0,1-9,2.62,50.18,50.18,0,0,1-9.22.87,39.25,39.25,0,0,1-16.07-3.26A35.2,35.2,0,0,1,1039,766a44.74,44.74,0,0,1-8.35-15.56,69.46,69.46,0,0,1-3-21.29,59.38,59.38,0,0,1,2.7-18.18,44.16,44.16,0,0,1,7.76-14.64,36,36,0,0,1,12.38-9.73A37.21,37.21,0,0,1,1067,683Zm.33,12q-10.71,0-16.86,6.84t-7.64,19h45.76a36.42,36.42,0,0,0-1.41-10.42,24.15,24.15,0,0,0-4.16-8.17,18.69,18.69,0,0,0-6.68-5.32A20.74,20.74,0,0,0,1067.31,695.06Zm53.39,82.43v-93h8.8c2.11,0,3.43,1.13,4,3.4l1.16,10.1a48.52,48.52,0,0,1,12.25-10.84,29.47,29.47,0,0,1,15.65-4.13,27.78,27.78,0,0,1,12.17,2.53,23.84,23.84,0,0,1,8.8,7.16,33,33,0,0,1,5.36,11.15,53.66,53.66,0,0,1,1.82,14.41v59.21h-14.78V718.28q0-10.54-4.36-16.38t-13.33-5.83a23,23,0,0,0-12.24,3.49,41.13,41.13,0,0,0-10.51,9.45v68.48ZM1270.42,701a7,7,0,0,1-1.33,1.56,2.9,2.9,0,0,1-1.91.56,4.53,4.53,0,0,1-2.7-1.15,38.91,38.91,0,0,0-3.69-2.53,30.53,30.53,0,0,0-5.44-2.52,26.28,26.28,0,0,0-18.73,1.28,21.76,21.76,0,0,0-7.93,7,33.13,33.13,0,0,0-4.81,11.1,60.69,60.69,0,0,0-1.62,14.6,58.73,58.73,0,0,0,1.74,15,33.81,33.81,0,0,0,4.9,11,21.34,21.34,0,0,0,7.68,6.79,21.83,21.83,0,0,0,10.17,2.34,23.75,23.75,0,0,0,8.89-1.42,26.39,26.39,0,0,0,5.81-3.17,43,43,0,0,0,3.82-3.17,4.43,4.43,0,0,1,3-1.42,3,3,0,0,1,2.82,1.56l4.15,6a32.27,32.27,0,0,1-13.7,10.88,44.54,44.54,0,0,1-17.35,3.44,33.26,33.26,0,0,1-26.41-12.53,45.51,45.51,0,0,1-7.85-15,66.2,66.2,0,0,1-2.86-20.29,67,67,0,0,1,2.62-19.19,44.76,44.76,0,0,1,7.64-15.19,35,35,0,0,1,12.41-10,38.34,38.34,0,0,1,16.94-3.58,36.64,36.64,0,0,1,15.61,3.17,37.32,37.32,0,0,1,12,8.95Zm53.47-18a34.32,34.32,0,0,1,13.95,2.8,31.26,31.26,0,0,1,11.05,8.08,37.52,37.52,0,0,1,7.26,13,55,55,0,0,1,2.62,17.67c0,2.57-.25,4.28-.75,5.14a3,3,0,0,1-2.82,1.28h-56a56.17,56.17,0,0,0,2.16,15.33,32.4,32.4,0,0,0,5.48,10.88,22.16,22.16,0,0,0,8.3,6.52,26.1,26.1,0,0,0,10.8,2.16,28.83,28.83,0,0,0,9.59-1.43,42.09,42.09,0,0,0,6.93-3.07,50.82,50.82,0,0,0,4.86-3.08,6.13,6.13,0,0,1,3.36-1.42,3.18,3.18,0,0,1,2.83,1.56l4.15,6a29.23,29.23,0,0,1-6.56,6.38,39.51,39.51,0,0,1-8.18,4.45,48.23,48.23,0,0,1-9,2.62,50,50,0,0,1-9.22.87,39.21,39.21,0,0,1-16.06-3.26A35.24,35.24,0,0,1,1296,766a44.89,44.89,0,0,1-8.34-15.56,69.16,69.16,0,0,1-3-21.29,59.38,59.38,0,0,1,2.7-18.18,43.79,43.79,0,0,1,7.76-14.64,36,36,0,0,1,12.37-9.73A37.21,37.21,0,0,1,1323.89,683Zm.34,12q-10.73,0-16.86,6.84t-7.64,19h45.75a36.42,36.42,0,0,0-1.41-10.42,24,24,0,0,0-4.15-8.17,18.86,18.86,0,0,0-6.68-5.32A20.77,20.77,0,0,0,1324.23,695.06Zm101.55,4.77a3.25,3.25,0,0,1-3.07,2,5.45,5.45,0,0,1-2.83-1q-1.58-1-3.86-2.25a34.13,34.13,0,0,0-5.44-2.29,23.4,23.4,0,0,0-7.47-1.06,20,20,0,0,0-6.73,1.06,15.46,15.46,0,0,0-5.1,2.89,12.62,12.62,0,0,0-3.24,4.27,12.41,12.41,0,0,0-1.12,5.28,9.35,9.35,0,0,0,1.87,6,16.4,16.4,0,0,0,4.94,4.13,40.15,40.15,0,0,0,7,3.08q3.9,1.33,8,2.84t8,3.36a28.45,28.45,0,0,1,7,4.59,20.56,20.56,0,0,1,4.94,6.74,22.46,22.46,0,0,1,1.87,9.6,33.24,33.24,0,0,1-2.07,11.88,26.09,26.09,0,0,1-6.15,9.46,29.07,29.07,0,0,1-10,6.29,37.38,37.38,0,0,1-13.62,2.29,39,39,0,0,1-16-3.16,40,40,0,0,1-12.12-8.13l3.49-6.24a5.35,5.35,0,0,1,1.58-1.84,4.17,4.17,0,0,1,2.41-.64,5.24,5.24,0,0,1,3.15,1.29q1.67,1.28,4,2.84a30,30,0,0,0,5.73,2.85,23.74,23.74,0,0,0,8.43,1.28A21,21,0,0,0,1407,766a15.43,15.43,0,0,0,5.4-3.35,13.45,13.45,0,0,0,3.2-4.86,16.61,16.61,0,0,0,1-5.88,10.49,10.49,0,0,0-1.86-6.38,16.2,16.2,0,0,0-5-4.31,36.91,36.91,0,0,0-7-3.12q-3.94-1.34-8.06-2.8a87,87,0,0,1-8-3.35,28.37,28.37,0,0,1-7-4.73,21.37,21.37,0,0,1-4.94-7,24.9,24.9,0,0,1-1.87-10.15,26.9,26.9,0,0,1,2-10.23,24.91,24.91,0,0,1,5.81-8.63,28,28,0,0,1,9.38-5.93,34.52,34.52,0,0,1,12.71-2.2,36.91,36.91,0,0,1,14.9,2.89,35.14,35.14,0,0,1,11.42,7.94Z" transform="translate(-272.9 -325.31)"/></svg>