<svg xmlns="http://www.w3.org/2000/svg" viewBox="0 0 207.05 139.95"><defs><style>.a{fill:none;}</style></defs><title>i-love-animation-3</title><path class="a" d="M147.92,79.93c0,1.73,0,4.35.12,7.83s.12,6.1.12,7.83c0,.3-.06.48-.18.56l-.53.08a27.39,27.39,0,0,1-3.53.18,23.34,23.34,0,0,1-3.78-.18.65.65,0,0,1-.59-.68c0,.23.06-1.06.19-3.88q.36-8.94.36-11.74,0-2.37-.14-7.08c-.1-3.15-.14-5.51-.14-7.09,0-.32.15-.48.46-.48s1.06,0,1.9.07,1.48.06,1.9.06,1,0,1.86-.06,1.44-.07,1.86-.07.59.16.59.48q0,2.37-.24,7.09T147.92,79.93Zm-27.32,70.9c-1.17,0-2.68,0-4.55-.09l-4.55-.11-6.07-.09c-.61,0-1.48,0-2.62-.08a.65.65,0,0,1-.59-.69c0-1.6,0-4,.07-7.2s.07-5.6.07-7.2,0-4.27-.14-7.67-.14-6-.14-7.67c0-.32.2-.48.61-.48s1,0,1.82.06,1.4.07,1.79.07,1.11,0,2-.08,1.55-.08,2-.08c.21,0,.3.14.29.42l0,.29q-.26,4.15-.55,12.47l0,5.82c0,1.88,0,3.26,0,4.13,0,.17,0,.35,0,.52a.35.35,0,0,0,.3.34h.53c1.22,0,3-.07,5.47-.21s4.26-.21,5.48-.21c.36,0,.54.17.54.5a36.05,36.05,0,0,1-.5,6.51c-.07.39-.21.61-.43.69A4,4,0,0,1,120.6,150.83Zm23.47-11.23a11.68,11.68,0,0,1-2.83,8.16,10.34,10.34,0,0,1-14.79.05,11.15,11.15,0,0,1-2.89-7.94,12.22,12.22,0,0,1,2.76-8.31,9.39,9.39,0,0,1,7.48-3.19,9.58,9.58,0,0,1,7.43,3.12A11.61,11.61,0,0,1,144.07,139.6Zm-6.66,0a5,5,0,0,0-1-3.08,3.09,3.09,0,0,0-2.58-1.33,3.16,3.16,0,0,0-2.64,1.37,4.86,4.86,0,0,0-1,3,4.94,4.94,0,0,0,1,3.07,3.21,3.21,0,0,0,5.26,0A5,5,0,0,0,137.41,139.6Zm28.65-4.46a23.3,23.3,0,0,1-.22,4.46,27.1,27.1,0,0,1-2.8,5.32,57.42,57.42,0,0,1-3.48,5c-.35.45-1.41.68-3.18.68a16.44,16.44,0,0,1-3-.17,1.38,1.38,0,0,1-.71-.45,48.18,48.18,0,0,1-3.47-5,31.83,31.83,0,0,1-2.89-5.23,15.77,15.77,0,0,1-.5-4.57c0-.57,0-1.44,0-2.59s0-2,0-2.61c0-.39.23-.58.71-.58.69,0,1.73,0,3.12.07s2.42.06,3.11.06c.31,0,.47.23.47.69s0,1-.08,1.86-.08,1.46-.08,1.89q0,2.29.12,3.75a9.25,9.25,0,0,0,1.18,2.82q1.16,2.19,1.68,2.19c.34,0,.88-.72,1.63-2.14a9.86,9.86,0,0,0,1.15-2.74,36.77,36.77,0,0,0,.17-3.79c0-.43-.05-1.07-.13-1.93s-.12-1.5-.12-1.91.14-.69.43-.69l1.45,0,1.45,0q.5,0,1.47-.09c.66-.06,1.15-.09,1.48-.09a.68.68,0,0,1,.67.58A23.8,23.8,0,0,1,166.06,135.14Zm21.36,3.34c0,1.48-.44,2.33-1.32,2.53-.15,0-1.55.19-4.2.49q-2.4.28-7.15.68a3.08,3.08,0,0,0,1.73,2.19,5.69,5.69,0,0,0,2.68.61,7.25,7.25,0,0,0,3.63-1l1.55-1.06a6.48,6.48,0,0,1,1.43,2.25,8.57,8.57,0,0,1,1,2.58,1.08,1.08,0,0,1-.3.51c-1.65,1.92-4.22,2.89-7.7,2.89A10.39,10.39,0,0,1,171,148a11.42,11.42,0,0,1-3-8.32,12.55,12.55,0,0,1,2.72-8.32,9.22,9.22,0,0,1,7.43-3.35,8.49,8.49,0,0,1,6.62,3.09A10.72,10.72,0,0,1,187.42,138.48Zm-7.1-1.35a3.59,3.59,0,0,0-.9-2.41,2.71,2.71,0,0,0-2.13-1,2.5,2.5,0,0,0-2.11,1.17,4.19,4.19,0,0,0-.77,2.53q0,.6.57.6a32.89,32.89,0,0,0,4.67-.51C180.09,137.41,180.32,137.29,180.32,137.13Zm-112.15,67c0,.26-.17.45-.51.55a20.93,20.93,0,0,1-3.77.18,23.15,23.15,0,0,1-3.74-.18,1.14,1.14,0,0,1-.87-1c-.46-2.12-.82-3.25-1.08-3.4a41.19,41.19,0,0,0-5.44-.16,15,15,0,0,0-3.68.2,6.55,6.55,0,0,0-.77,2.36c-.26,1.22-.57,1.89-.93,2a30.89,30.89,0,0,1-4.63.18c-2.07,0-3.11-.22-3.11-.64s1.53-5.09,4.59-14.1q5-14.62,5.4-16.09.24-.84.57-.84c.36,0,.93,0,1.69.11s1.34.12,1.72.12.9,0,1.61-.08,1.25-.08,1.6-.08.49.24.71.73q1,2.31,5.81,15.88T68.17,204.13ZM53.77,184c-.28.64-.76,2.05-1.44,4.21a24.78,24.78,0,0,0-1.1,4c0,.26.41.41,1.22.44.42,0,1.11,0,2.07,0s1.39-.11,1.49-.35a1.11,1.11,0,0,0,0-.31,22.65,22.65,0,0,0-.94-4A32.15,32.15,0,0,0,53.77,184Zm36.51,20a.61.61,0,0,1-.57.68,27.28,27.28,0,0,1-3,.09,21.27,21.27,0,0,1-3.17-.13c-.4-.09-.61-.39-.61-.91,0-.69,0-1.73.06-3.13s.06-2.45.06-3.15,0-1.36,0-2.44,0-1.9,0-2.44c0-2-.8-3-2.41-3a3.35,3.35,0,0,0-1.85.75q-1.14.84-1.14,1.65v11.92a.7.7,0,0,1-.63.81,29,29,0,0,1-2.9.09,21.7,21.7,0,0,1-3.09-.13.68.68,0,0,1-.63-.73c0-1.15,0-2.87,0-5.18s0-4.05,0-5.21a36.8,36.8,0,0,0-.79-8.63,1.47,1.47,0,0,1,0-.33.47.47,0,0,1,.31-.48c.85-.11,2-.27,3.41-.49a36.32,36.32,0,0,1,3.63-.68c.15,0,.27.49.35,1.49s.19,1.48.34,1.48c-.15,0,.58-.51,2.18-1.53A8.2,8.2,0,0,1,84,182.86a6.86,6.86,0,0,1,4.3,1.32,5.1,5.1,0,0,1,1.93,4.24v7c0,.95,0,2.38,0,4.29S90.28,203.08,90.28,204Zm10.91-9.49q0,1.62.06,4.8c0,2.13.06,3.72.06,4.78a.53.53,0,0,1-.51.55,21.66,21.66,0,0,1-3.11.13,21.74,21.74,0,0,1-3.12-.13.76.76,0,0,1-.55-.29,2.58,2.58,0,0,1,0-.66c0-1,0-2.54.06-4.58s.06-3.57.06-4.6a86.88,86.88,0,0,0-.45-10c0-.24,0-.39,0-.46,0-.3.18-.45.55-.45a17.1,17.1,0,0,1,1.74.14,16.22,16.22,0,0,0,1.75.13c.4,0,1,0,1.77-.11s1.37-.11,1.77-.11.48.15.48.44a3.71,3.71,0,0,1,0,.42A97.31,97.31,0,0,0,101.19,194.55Zm.52-16.39c0,2.56-1.32,3.84-4,3.84a4.2,4.2,0,0,1-2.82-1,3.9,3.9,0,0,1,0-5.7,4.1,4.1,0,0,1,2.78-1,4,4,0,0,1,2.75,1A3.59,3.59,0,0,1,101.71,178.16Zm35.84,25.7c0,.52-.2.8-.61.86a28.51,28.51,0,0,1-3,.09,20.46,20.46,0,0,1-3.09-.13c-.4-.09-.61-.45-.61-1.08s0-1.69.06-3,.06-2.35.06-3c0-2.57,0-4.4-.08-5.49-.08-1.75-.84-2.63-2.29-2.63a2.82,2.82,0,0,0-1.9.87,3,3,0,0,0-1,1.93c-.05.62-.08,2.43-.08,5.43,0,.69,0,1.74.06,3.14s.07,2.46.07,3.17c0,.49-.2.73-.59.73h-6.16c-.38,0-.56-.3-.56-.91s0-1.72.06-3.11.06-2.42.06-3.13c0-.54,0-1.37,0-2.47s0-1.93,0-2.49c0-2.11-.74-3.16-2.22-3.16a3.37,3.37,0,0,0-1.93.75,2.25,2.25,0,0,0-1.13,1.72c0,1.34,0,3.34,0,6s0,4.66,0,6a.63.63,0,0,1-.75.86c-.61.06-1.57.09-2.89.09-.85,0-1.82,0-2.9-.13-.33,0-.52-.08-.58-.16a1.35,1.35,0,0,1-.09-.66c0-1.17,0-2.94,0-5.28s0-4.11,0-5.29a75.52,75.52,0,0,0-.49-8.14c0-.17,0-.31,0-.39a.51.51,0,0,1,.29-.51,6.59,6.59,0,0,1,1.68-.33l1.81-.2c.13,0,.67-.18,1.6-.46a5.63,5.63,0,0,1,1.61-.31c.25,0,.39.51.4,1.53s.07,1.53.17,1.53a1.68,1.68,0,0,0,.46-.31,18.55,18.55,0,0,1,2.89-2.11,7.14,7.14,0,0,1,3.39-.82,6.25,6.25,0,0,1,3.33.9,4.7,4.7,0,0,1,2.13,2.85,8.73,8.73,0,0,1,3-2.67,7.41,7.41,0,0,1,3.68-1.08,6.74,6.74,0,0,1,4.36,1.35,5.2,5.2,0,0,1,1.91,4.34c0,.78,0,2-.06,3.52s-.06,2.74-.06,3.52c0,.93,0,2.32.06,4.18S137.55,202.94,137.55,203.86Zm24.27-10.21c0,1.13.06,2.81.18,5s.18,3.91.18,5c0,.59-.23.9-.71,1-1.68.13-3.6.2-5.76.2-.26,0-.43-.42-.52-1.27s-.19-1.28-.32-1.29a2,2,0,0,0-.42.37,6.58,6.58,0,0,1-4.88,2.5,7.94,7.94,0,0,1-6.55-3.4,12,12,0,0,1-2.46-7.59A12.55,12.55,0,0,1,143.1,186a8.84,8.84,0,0,1,7.23-3.22,6,6,0,0,1,5,2.43c0,.07.1.11.14.11s.26-.36.42-1.07.34-1.07.56-1.07a16.3,16.3,0,0,1,2.86.46,25,25,0,0,1,2.88.75c.21.09.31.21.31.35a4.35,4.35,0,0,1-.06.47A53,53,0,0,0,161.82,193.65Zm-6.54.13a4.48,4.48,0,0,0-1.09-3.1,3.89,3.89,0,0,0-5.65,0,4.86,4.86,0,0,0,.06,6.18,3.73,3.73,0,0,0,5.58.05A4.52,4.52,0,0,0,155.28,193.78Zm24.16,4.43a19.67,19.67,0,0,1-.15,2q-.15,1.35-.15,2a1.67,1.67,0,0,1-.12.8,2.48,2.48,0,0,1-.67.51,11.18,11.18,0,0,1-5.81,1.57q-5.86,0-5.87-4.88c0-1,0-2.43.1-4.38s.11-3.41.11-4.38c0-.65-.35-1-1-1h-.27l-.26,0c-.51,0-.77-.2-.77-.59s0-.6.05-1.08,0-.85,0-1.09,0-.77,0-1.41-.05-1.1-.05-1.41.43-.46,1.3-.49c.49,0,.75-.16.79-.44a17.42,17.42,0,0,0,.08-2.64c-.05-1.9-.08-2.81-.08-2.72,0-1.7.15-2.56.45-2.56a6.65,6.65,0,0,1,1.56.27,13.72,13.72,0,0,0,1.61.33l3.12.42c.34,0,.51.15.51.37,0,.59,0,1.48-.13,2.67s-.13,2.09-.13,2.69.19,1.09.59,1.09,1.19,0,2.15-.07,1.68-.07,2.17-.07q.45,0,.45.33c0,.34,0,.85-.1,1.53s-.11,1.18-.11,1.52,0,.87,0,1.54,0,1.19,0,1.55-.19.46-.59.46l-1.35,0-1.37,0H174c-.2,0-.3.33-.3,1v1.56c0,.71,0,1.23,0,1.57a6,6,0,0,0,.38,2.56,2.29,2.29,0,0,0,2.15,1,6.15,6.15,0,0,0,1.46-.26,5.91,5.91,0,0,1,1.33-.25Q179.44,197.73,179.44,198.21Zm9.65-3.66q0,1.62.06,4.8c0,2.13.06,3.72.06,4.78a.53.53,0,0,1-.51.55,21.49,21.49,0,0,1-3.1.13,21.82,21.82,0,0,1-3.13-.13.76.76,0,0,1-.55-.29,2.58,2.58,0,0,1,0-.66c0-1,0-2.54.06-4.58s.06-3.57.06-4.6a86.88,86.88,0,0,0-.45-10c0-.24,0-.39,0-.46,0-.3.19-.45.55-.45a17.1,17.1,0,0,1,1.74.14,16.4,16.4,0,0,0,1.75.13c.4,0,1,0,1.77-.11s1.38-.11,1.77-.11.49.15.49.44c0,.06,0,.2,0,.42A97.07,97.07,0,0,0,189.09,194.55Zm.53-16.39q0,3.84-4,3.84a4.21,4.21,0,0,1-2.83-1,3.92,3.92,0,0,1,0-5.7,4.13,4.13,0,0,1,2.79-1,4,4,0,0,1,2.74,1A3.6,3.6,0,0,1,189.62,178.16Zm22.92,15.66a11.7,11.7,0,0,1-2.83,8.17,10.35,10.35,0,0,1-14.79,0,11.15,11.15,0,0,1-2.89-7.94,12.26,12.26,0,0,1,2.76-8.31,9.41,9.41,0,0,1,7.48-3.19,9.57,9.57,0,0,1,7.43,3.13A11.58,11.58,0,0,1,212.54,193.82Zm-6.66,0a5,5,0,0,0-1-3.07,3.07,3.07,0,0,0-2.57-1.34,3.18,3.18,0,0,0-2.64,1.37,5.25,5.25,0,0,0,0,6.11,3.21,3.21,0,0,0,5.26,0A5,5,0,0,0,205.88,193.82ZM235.18,204a.61.61,0,0,1-.57.68,27.28,27.28,0,0,1-3,.09,21.27,21.27,0,0,1-3.17-.13c-.41-.09-.61-.39-.61-.91,0-.69,0-1.73.06-3.13s.06-2.45.06-3.15,0-1.36,0-2.44,0-1.9,0-2.44c0-2-.8-3-2.41-3a3.35,3.35,0,0,0-1.85.75q-1.14.84-1.14,1.65v11.92a.7.7,0,0,1-.63.81,29,29,0,0,1-2.9.09,21.7,21.7,0,0,1-3.09-.13.68.68,0,0,1-.63-.73c0-1.15,0-2.87,0-5.18s0-4.05,0-5.21a36.8,36.8,0,0,0-.79-8.63,1.47,1.47,0,0,1,0-.33.47.47,0,0,1,.31-.48c.85-.11,2-.27,3.41-.49a36.32,36.32,0,0,1,3.63-.68c.15,0,.26.49.35,1.49s.19,1.48.34,1.48c-.15,0,.58-.51,2.18-1.53a8.2,8.2,0,0,1,4.22-1.53,6.86,6.86,0,0,1,4.3,1.32,5.1,5.1,0,0,1,1.93,4.24v7c0,.95,0,2.38,0,4.29S235.18,203.08,235.18,204Zm11.51-25a40.17,40.17,0,0,1-.67,7.55c-.54,2.41-1.07,4.82-1.6,7.21-.12.55-.66.82-1.63.82s-1.7-.23-1.82-.71a65.68,65.68,0,0,1-1.91-8.05c0-.6,0-1.5.08-2.69s.08-2.09.08-2.69,0-1.66-.06-3-.06-2.32-.06-3,.12-.82.36-.82.95,0,1.71.09,1.33.09,1.71.09.94,0,1.7-.09,1.33-.09,1.71-.09S246.69,175.5,246.69,179.06Zm0,21.87a4.58,4.58,0,0,1-1.05,3.08,3.5,3.5,0,0,1-2.76,1.22,3.46,3.46,0,0,1-2.77-1.21,4.56,4.56,0,0,1-1.05-3.09,4.41,4.41,0,0,1,1.06-3.05,3.78,3.78,0,0,1,5.51,0A4.41,4.41,0,0,1,246.69,200.93Z" transform="translate(-39.64 -65.28)"/></svg>